<?xml version="1.0" standalone="no"?>
<!DOCTYPE svg PUBLIC "-//W3C//DTD SVG 20010904//EN"
 "http://www.w3.org/TR/2001/REC-SVG-20010904/DTD/svg10.dtd">
<svg version="1.0" xmlns="http://www.w3.org/2000/svg"
 width="1501.000000pt" height="1501.000000pt" viewBox="0 0 1501.000000 1501.000000"
 preserveAspectRatio="xMidYMid meet">
<metadata>
Created by potrace 1.14, written by Peter Selinger 2001-2017
</metadata>
<g transform="translate(0.000000,1501.000000) scale(0.100000,-0.100000)"
fill="#000000" stroke="none">
<path d="M7407 14174 c-1 -1 -74 -5 -162 -8 -227 -9 -303 -15 -445 -31 -19 -2
-64 -7 -100 -11 -36 -3 -72 -7 -80 -9 -8 -1 -40 -6 -70 -10 -30 -4 -64 -9 -75
-11 -11 -2 -38 -6 -60 -9 -35 -5 -405 -79 -445 -89 -8 -2 -35 -9 -60 -16 -25
-7 -53 -14 -63 -16 -31 -6 -111 -27 -202 -55 -38 -11 -77 -22 -86 -24 -25 -5
-274 -90 -369 -125 -47 -17 -98 -37 -115 -43 -16 -6 -41 -16 -55 -24 -14 -7
-31 -13 -38 -13 -7 0 -20 -4 -30 -10 -9 -5 -79 -37 -154 -70 -237 -103 -633
-311 -765 -401 -23 -16 -44 -29 -48 -29 -9 0 -327 -213 -384 -257 -9 -7 -47
-36 -86 -64 -593 -440 -1128 -1001 -1551 -1629 -100 -148 -296 -470 -287 -470
3 0 -1 -8 -9 -17 -24 -27 -186 -350 -260 -518 -58 -129 -164 -390 -172 -420
-2 -5 -6 -17 -9 -25 -62 -155 -192 -605 -243 -842 -19 -92 -60 -310 -68 -363
-3 -22 -8 -51 -11 -65 -2 -14 -7 -47 -10 -75 -3 -27 -8 -63 -10 -80 -9 -70
-16 -127 -20 -182 -3 -32 -7 -76 -10 -98 -25 -210 -26 -906 0 -1130 2 -16 6
-61 10 -100 6 -59 39 -325 50 -390 15 -98 39 -231 50 -280 8 -33 16 -73 19
-90 3 -16 22 -95 41 -175 162 -659 429 -1297 788 -1885 34 -55 65 -102 69
-103 4 -2 8 -8 8 -14 0 -20 245 -365 397 -558 54 -69 218 -260 298 -348 76
-84 311 -319 396 -396 35 -32 80 -73 99 -90 30 -28 203 -174 265 -224 328
-266 805 -569 1207 -765 148 -73 395 -184 448 -202 3 -1 19 -7 35 -14 221 -93
777 -268 944 -298 14 -2 55 -11 91 -19 36 -9 76 -18 90 -20 14 -3 63 -12 110
-20 47 -9 93 -18 102 -19 9 -2 68 -11 130 -20 62 -9 124 -18 138 -20 28 -4 87
-11 175 -20 33 -3 78 -8 100 -10 256 -27 1012 -27 1175 -1 14 3 61 7 104 11
43 4 86 8 95 10 9 1 41 6 72 9 31 4 66 8 76 10 11 3 44 7 73 11 29 4 62 9 74
11 11 2 38 6 61 10 181 26 612 131 859 208 586 184 1163 459 1673 798 132 87
368 255 395 281 7 6 31 25 53 42 63 47 245 199 335 280 879 792 1532 1796
1892 2910 36 111 86 280 93 315 2 8 8 27 14 43 6 15 8 27 6 27 -2 0 0 11 5 25
5 14 12 36 14 48 2 12 13 63 25 112 11 50 22 101 25 115 2 14 7 36 10 50 3 14
8 36 10 50 3 14 9 48 15 77 6 29 13 74 16 100 4 26 8 55 10 63 4 14 7 38 20
135 19 140 24 180 23 185 -1 3 2 34 5 70 4 36 9 85 12 110 8 77 19 399 19 530
0 136 -12 467 -18 515 -3 17 -7 67 -11 112 -3 45 -8 91 -10 103 -2 12 -7 49
-10 83 -3 34 -8 73 -10 87 -2 14 -7 45 -10 70 -17 129 -88 502 -110 580 -3 8
-11 42 -19 75 -63 268 -206 693 -328 979 -76 180 -215 464 -308 631 -40 72
-78 139 -84 150 -6 11 -28 46 -49 78 -20 31 -37 59 -37 62 0 19 -311 463 -415
591 -30 38 -77 96 -103 128 -152 189 -411 462 -642 676 -98 90 -324 282 -395
335 -22 16 -42 32 -45 35 -17 18 -228 169 -355 255 -685 459 -1419 776 -2220
959 -147 34 -325 69 -415 81 -24 4 -47 8 -50 10 -3 2 -34 6 -70 10 -36 4 -72
8 -80 10 -8 2 -44 6 -80 10 -36 4 -72 8 -80 10 -8 2 -58 6 -110 10 -52 5 -108
9 -125 11 -73 7 -573 22 -578 18z"/>
</g>
</svg>
