<?xml version="1.0" encoding="iso-8859-1"?>
<!-- Generator: Adobe Illustrator 16.0.0, SVG Export Plug-In . SVG Version: 6.00 Build 0)  -->
<!DOCTYPE svg PUBLIC "-//W3C//DTD SVG 1.1//EN" "http://www.w3.org/Graphics/SVG/1.1/DTD/svg11.dtd">
<svg version="1.1" id="Capa_1" xmlns="http://www.w3.org/2000/svg" xmlns:xlink="http://www.w3.org/1999/xlink" x="0px" y="0px"
	 width="547.623px" height="547.622px" viewBox="0 0 547.623 547.622" style="enable-background:new 0 0 547.623 547.622;"
	 xml:space="preserve">
<g>
	<g>
		<path d="M82.818,494.404l72.938-29.336c4.715-1.896,9.973,0.428,11.738,5.195l27.322,73.719c1.766,4.768,4.866,4.863,6.925,0.215
			l66.589-150.43l-4.602-4.031l-35.377-30.994l-46.139,9.174l-13.17,2.619l-4.305-12.721l-12.341-36.453L78.005,489.422
			C75.945,494.07,78.103,496.301,82.818,494.404z"/>
		<path d="M382.881,357.814l-4.305,12.721l-13.171-2.619l-46.136-9.176l-35.376,30.994l-4.603,4.033l66.589,150.43
			c2.056,4.648,5.159,4.553,6.925-0.215l27.322-73.719c1.766-4.768,7.022-7.092,11.738-5.195l72.938,29.336
			c4.715,1.896,6.872-0.334,4.813-4.982l-74.395-168.064L382.881,357.814z"/>
		<path d="M120.661,230.161l-10.646,53.532l51.362,17.387l0.349,0.119l17.503,51.711l53.532-10.646l38.764,33.963l2.283,2.002
			l2.282-2.002l38.765-33.963l53.531,10.646l17.507-51.711l0.352-0.119l51.359-17.387l-10.646-53.532l35.962-41.05l-35.962-41.05
			l10.646-53.532l-51.711-17.506l-17.504-51.711l-53.531,10.646L273.811,0l-41.05,35.964l-53.532-10.646L161.723,77.03
			l-51.711,17.506l10.646,53.532l-35.961,41.047L120.661,230.161z M167.054,142.599l-12.323-22.265l25.444-0.44l24-0.416l0.416-24
			l0.44-25.447l22.268,12.323l21.016,11.631l12.39-20.575l13.106-21.763l13.105,21.766l12.391,20.576l21.019-11.631l22.265-12.322
			l0.441,25.444l0.416,24l23.999,0.416l25.444,0.44l-12.322,22.268l-11.632,21.017l20.576,12.39l21.766,13.106l-21.766,13.106
			l-20.576,12.39l11.632,21.019l12.322,22.265l-25.444,0.44l-0.119,0.003l-23.88,0.413l-0.416,24l-0.441,25.447l-22.268-12.322
			l-6.955-3.85l-14.061-7.781l-12.39,20.574l-13.106,21.76l-13.106-21.766l-12.39-20.574l-14.061,7.781l-6.958,3.85l-22.265,12.322
			l-0.44-25.444l-0.416-24l-23.877-0.413l-0.123-0.003l-25.444-0.44l12.323-22.268l11.631-21.016l-20.575-12.39l-21.766-13.106
			l21.766-13.106l20.575-12.39L167.054,142.599z"/>
		<polygon points="180.441,243.038 187.017,243.151 219.218,243.708 219.888,282.484 231.066,276.297 251.528,264.975 
			253.811,263.711 253.933,263.91 273.811,296.922 293.689,263.91 293.811,263.711 296.094,264.975 316.556,276.297 
			327.734,282.484 328.405,243.708 360.605,243.151 367.181,243.038 348.408,209.114 381.618,189.114 348.408,169.114 
			367.181,135.191 328.405,134.521 327.734,95.745 293.811,114.518 273.811,81.304 253.811,114.518 219.888,95.742 219.218,134.518 
			180.441,135.191 199.214,169.114 166.004,189.114 199.214,209.114 		"/>
	</g>
</g>
<g>
</g>
<g>
</g>
<g>
</g>
<g>
</g>
<g>
</g>
<g>
</g>
<g>
</g>
<g>
</g>
<g>
</g>
<g>
</g>
<g>
</g>
<g>
</g>
<g>
</g>
<g>
</g>
<g>
</g>
</svg>
