<?xml version="1.0"?>
<svg width="300" height="75" xmlns="http://www.w3.org/2000/svg" xmlns:svg="http://www.w3.org/2000/svg" preserveAspectRatio="xMidYMid meet" version="1.0">
 <!-- Created with SVG-edit - https://github.com/SVG-Edit/svgedit-->
 <g class="layer">
  <title>Layer 1</title>
  <path d="m145.94213,27.235027l0,0.725583l-2.129649,0.115436c-1.199458,0.049474 -2.325481,0.115436 -2.521309,0.131925c-0.269266,0.032978 -0.367182,0.247355 -0.39166,0.775057c-0.024478,0.709094 -0.04896,0.742072 -0.78332,0.791546c-0.685404,0.049467 -0.807798,0.131925 -1.052586,0.742072c-0.146872,0.379281 -0.636448,1.550114 -1.101546,2.589015c-0.465094,1.038908 -1.126019,2.753925 -1.468723,3.792827c-0.587488,1.846943 -0.587488,2.011847 -0.587488,10.174669l0,8.294748l-2.692663,0l-2.692659,0l0,-4.699803l0,-4.699809l-1.028108,-0.016489c-0.587492,0 -3.696289,-0.065963 -6.927484,-0.148414c-5.654588,-0.115436 -5.997288,-0.098947 -9.473271,0.296829l-3.62285,0.428754l0,8.047386c0,5.260489 -0.073438,8.047393 -0.244788,8.047393c-0.146872,0 -0.244788,-0.857509 -0.244788,-2.226224l0,-2.226224l-1.223935,0l-1.22394,0l0,0.989428l0,0.972945l-2.374437,0.049474l-2.398915,0.049467l-0.073438,3.133206c-0.048956,3.034265 -0.146872,3.364073 -0.832276,3.380568c-0.122394,0 -0.195828,-4.040189 -0.195828,-8.987353l0,-8.970858l-3.353589,0.016489c-1.860383,0 -3.647333,-0.065963 -3.990032,-0.148414c-0.342704,-0.082458 -0.881236,-0.115436 -1.22394,-0.049474l-0.611966,0.098941l-0.122394,5.837658c-0.073438,3.215658 -0.195832,5.837658 -0.293744,5.804674c-0.122394,-0.016489 -0.685408,-0.032978 -1.297374,-0.032978l-1.101546,0l0,-3.528983l0,-3.528976l-0.905714,-0.214377c-1.566635,-0.362792 -10.574812,-0.28034 -14.442451,0.115436l-0.807798,0.082452l0,2.539542l0,2.556037l-3.549417,0l-3.549417,0l0,0.461739c0,0.610147 -0.538536,1.104864 -1.077068,0.972939c-0.220306,-0.065963 -0.39166,-0.214377 -0.39166,-0.362792c0,-0.329814 -0.95467,-0.329814 -2.619225,0.032978l-1.297369,0.28034l0,2.028342c0,2.011847 -0.22031,2.473579 -0.709886,1.533619l-0.244788,-0.494717l-4.773352,0l-4.797835,0l0,0.544191c0,0.544191 0,0.56068 -1.542157,0.709094l-1.517684,0.148414l-0.073434,3.908257c-0.04896,3.759849 -0.073438,3.924752 -0.538532,3.924752c-0.44062,0 -0.489576,-0.148414 -0.538536,-2.028336l-0.073434,-2.011847l-4.087949,-0.049474l-4.112431,-0.032978l-0.024478,-2.193246c-0.024478,-1.187322 -0.097912,-2.407623 -0.195828,-2.671467c-0.146872,-0.478228 -0.22031,-0.494717 -1.6156,-0.577169l-1.468723,-0.082458l0,-0.709094c0,-0.643132 -0.048956,-0.692599 -0.660926,-0.692599c-0.636448,0 -0.660926,-0.032985 -0.734359,-1.038908l-0.073438,-1.022412l-4.283781,0l-4.283776,0l-0.195832,0.857509l-0.220306,0.873998l-1.199458,0c-1.077068,0 -1.248418,-0.049474 -1.444246,-0.412265c-0.22031,-0.39577 -0.342704,-0.412259 -2.080693,-0.412259l-1.835905,0l0,5.854141c0,5.573807 -0.024478,5.854147 -0.465098,6.002562c-0.758842,0.28034 -0.930192,-0.082452 -1.077064,-2.127277c-0.244788,-3.232154 -0.538532,-3.561961 -3.108801,-3.726871l-1.860383,-0.098941l-0.587488,0.742072c-0.489576,0.610153 -0.758842,0.775057 -1.468723,0.874004c-1.370812,0.181393 -2.031738,0.082452 -2.692663,-0.44525c-0.56301,-0.428754 -0.758842,-0.478222 -2.129649,-0.478222c-0.832276,0 -1.566639,0.049467 -1.615595,0.11543c-0.073438,0.082458 -0.195832,2.110794 -0.293748,4.534906l-0.17135,4.419469l149.099982,0l149.099982,0l0,-3.215658l0,-3.215658l-2.692663,0l-2.692659,0l0,-2.440607c0,-2.143772 -0.048956,-2.490068 -0.440616,-2.720941c-0.538536,-0.329807 -3.231195,-0.775051 -4.748879,-0.775051c-0.758837,0 -1.419763,-0.115436 -1.982777,-0.379287c-0.95467,-0.412259 -1.077064,-0.67611 -1.370807,-3.463013c-0.122394,-1.253285 -0.22031,-1.517129 -0.56301,-1.566603c-0.416142,-0.049474 -0.44062,0.148414 -0.44062,2.440601l0,2.490075l-0.905714,-0.049474l-0.930192,-0.049467l-0.073434,-1.698529c-0.024482,-0.923472 -0.171354,-1.649055 -0.269266,-1.599588c-0.122394,0.032985 -0.318226,-0.11543 -0.416142,-0.379281c-0.17135,-0.313318 -0.244784,0.131925 -0.3427,1.616077l-0.122394,2.06132l-2.619225,0.049467l-2.643703,0.049474l0,-0.758568c0,-0.626636 -0.073438,-0.742072 -0.465098,-0.742072c-0.3427,0 -0.514049,-0.131925 -0.56301,-0.461733c-0.073438,-0.44525 -0.073438,-0.44525 -1.909339,-0.428761c-1.00363,0.016496 -2.839535,0.131925 -4.087953,0.230873l-2.276521,0.214377l0,0.873998c0,0.659621 -0.097916,0.890487 -0.3427,0.890487c-0.244788,0 -0.39166,0.230866 -0.44062,0.692605l-0.073434,0.709094l-1.272896,0.049474l-1.297374,0.049467l0,2.770415c0,2.73743 0,2.786904 -0.538532,2.885844c-1.17498,0.197888 -1.664556,0.115436 -1.664556,-0.296829c0,-0.494717 -0.39166,-0.593658 -2.766097,-0.709094l-1.933821,-0.098941l0.073438,-12.301952l0.073438,-12.301952l-0.538532,-0.692605c-0.293748,-0.379281 -0.930196,-0.906976 -1.419768,-1.154338c-0.489576,-0.247355 -1.248418,-0.659621 -1.689033,-0.923472c-0.734364,-0.39577 -0.979147,-0.445243 -2.766097,-0.445243l-1.958299,0l-0.39166,1.071886c-0.22031,0.577169 -0.39166,1.253285 -0.39166,1.484151c0,0.362792 -0.097916,0.412265 -0.856753,0.412265l-0.856758,0l0,5.672748l0,5.689237l-0.538532,0.049474l-0.56301,0.049474l-0.073438,4.073167c-0.024478,2.259202 -0.146872,4.089656 -0.244788,4.089656c-0.097916,0 -0.61197,-0.115436 -1.150502,-0.247362c-0.538532,-0.131925 -1.395285,-0.230866 -1.884861,-0.247355c-0.856753,0 -0.930192,0.032978 -0.930192,0.461733l0,0.478228l-2.864013,0.115436c-1.566639,0.049467 -2.864013,0.082452 -2.912969,0.049467c-0.048956,-0.016489 0.048956,-1.747996 0.195832,-3.825805c0.244784,-3.759849 0.073434,-6.332375 -0.538536,-7.404261c-0.195828,-0.379281 -0.367178,-0.428754 -1.321852,-0.428754c-0.95467,0 -1.150497,-0.065963 -1.468723,-0.461733c-0.489576,-0.643132 -1.223935,-1.055397 -1.713511,-0.923472c-0.22031,0.049474 -0.39166,0.164904 -0.39166,0.247355c0,0.082458 -0.440616,0.148414 -0.979147,0.148414c-0.758842,0 -1.150502,-0.098941 -1.566639,-0.412259l-0.56301,-0.412265l0,0.857509c0.024478,0.511206 -0.097916,0.873998 -0.269266,0.923472c-0.195832,0.032978 -0.293748,-0.197888 -0.293748,-0.775057c0,-0.461739 -0.097912,-0.84102 -0.244788,-0.84102c-0.12239,0 -0.244784,0.131925 -0.244784,0.28034c-0.024482,0.28034 -0.04896,0.28034 -0.367182,0c-0.318226,-0.296829 -0.342704,-0.263851 -0.44062,0.247362c-0.048956,0.296829 -0.122394,0.049467 -0.122394,-0.544191c-0.048956,-0.824531 -0.17135,-1.203811 -0.538532,-1.484151l-0.465094,-0.39577l-0.024478,1.253279c0,1.286263 -0.22031,1.583092 -1.052586,1.368715c-0.660926,-0.164904 -1.591117,0.230873 -1.762472,0.742079c-0.146872,0.511206 -0.17135,0.511206 -1.713511,0.511206l-1.517679,0l-0.171354,0.857509c-0.195828,1.104864 -0.195828,4.337011 0,5.738711c0.146876,1.022412 -0.220306,3.95773 -0.538532,4.51841c-0.097912,0.16491 -0.3427,0.263851 -0.56301,0.230866c-0.465094,-0.065956 -0.660926,-2.028336 -0.734364,-6.744634l-0.024478,-2.753919l-1.395285,-0.692605c-0.78332,-0.395776 -1.982777,-1.022412 -2.668185,-1.418189c-1.101541,-0.626643 -1.395285,-0.709094 -2.937447,-0.808035c-2.472353,-0.164904 -5.997292,0.164904 -7.857675,0.742072c-1.835905,0.56068 -1.762467,0.626643 -2.031733,-1.945884c-0.171354,-1.813958 -0.342704,-2.275697 -0.685404,-1.89641c-0.342704,0.379281 -0.78332,-0.049474 -0.954674,-0.939967l-0.195828,-0.906976l-2.815057,-0.098947c-1.542157,-0.065963 -3.549417,-0.11543 -4.45513,-0.131919l-1.640073,-0.016496l-0.073438,-0.544184l-0.073434,-0.527702l-2.00726,-0.049467l-2.031733,-0.049474l-0.048956,-6.546752c-0.073438,-6.085013 -0.097916,-6.546746 -0.489576,-6.59622c-0.416138,-0.049467 -0.44062,0.379287 -0.44062,7.123921c0,7.041463 0,7.189878 -0.489572,7.189878c-0.244788,0 -1.028108,0.148414 -1.713511,0.329814c-0.709886,0.181393 -2.276526,0.412265 -3.524939,0.494717c-3.010885,0.214377 -3.084323,0.230866 -3.084323,1.005923c0,0.577169 -0.073434,0.643132 -0.611966,0.643132l-0.61197,0l0,6.414827l0,6.414821l-1.052586,0.098947c-1.566639,0.164904 -11.896664,0.131925 -12.900293,-0.016489l-0.856758,-0.148421l-0.073434,-16.935792c-0.024478,-9.333656 -0.146872,-16.91931 -0.269266,-16.869836c-0.416138,0.181393 -7.514971,0.131925 -8.518601,-0.049474c-0.660926,-0.131925 -1.248413,-0.379281 -1.591117,-0.67611c-0.78332,-0.725583 -1.17498,-0.643132 -1.17498,0.230866l0.000004,0z" id="svg_1" opacity="0.1" stroke="#ffffff"/>
 </g>
</svg>