<?xml version="1.0"?>
<svg width="291" height="49" xmlns="http://www.w3.org/2000/svg" xmlns:svg="http://www.w3.org/2000/svg" preserveAspectRatio="xMidYMid meet" version="1.0">
 <!-- Created with SVG-edit - https://github.com/SVG-Edit/svgedit-->
 <g class="layer">
  <title>Layer 1</title>
  <path d="m141.321159,0.721027l0,0.725583l-2.079658,0.115436c-1.171301,0.049474 -2.270893,0.115436 -2.462124,0.131925c-0.262945,0.032978 -0.358563,0.247355 -0.382466,0.775057c-0.023903,0.709094 -0.047811,0.742072 -0.764932,0.791546c-0.669314,0.049467 -0.788835,0.131925 -1.027877,0.742072c-0.143424,0.379281 -0.621508,1.550114 -1.075688,2.589015c-0.454176,1.038908 -1.099587,2.753925 -1.434246,3.792827c-0.573697,1.846943 -0.573697,2.011847 -0.573697,10.174669l0,8.294748l-2.629455,0l-2.629451,0l0,-4.699803l0,-4.699809l-1.003974,-0.016489c-0.573701,0 -3.609521,-0.065963 -6.764867,-0.148414c-5.521851,-0.115436 -5.856507,-0.098947 -9.250894,0.296829l-3.537807,0.428754l0,8.047386c0,5.260489 -0.071714,8.047393 -0.239042,8.047393c-0.143424,0 -0.239042,-0.857509 -0.239042,-2.226224l0,-2.226224l-1.195205,0l-1.195209,0l0,0.989428l0,0.972945l-2.318699,0.049474l-2.342603,0.049467l-0.071714,3.133206c-0.047807,3.034265 -0.143424,3.364073 -0.812739,3.380568c-0.119521,0 -0.191231,-4.040189 -0.191231,-8.987353l0,-8.970858l-3.274866,0.016489c-1.816712,0 -3.561715,-0.065963 -3.89637,-0.148414c-0.334659,-0.082458 -0.86055,-0.115436 -1.195209,-0.049474l-0.5976,0.098941l-0.119521,5.837658c-0.071714,3.215658 -0.191235,5.837658 -0.286848,5.804674c-0.119521,-0.016489 -0.669319,-0.032978 -1.266919,-0.032978l-1.075688,0l0,-3.528983l0,-3.528976l-0.884453,-0.214377c-1.52986,-0.362792 -10.326578,-0.28034 -14.103427,0.115436l-0.788835,0.082452l0,2.539542l0,2.556037l-3.466097,0l-3.466097,0l0,0.461739c0,0.610147 -0.525895,1.104864 -1.051785,0.972939c-0.215134,-0.065963 -0.382466,-0.214377 -0.382466,-0.362792c0,-0.329814 -0.93226,-0.329814 -2.557741,0.032978l-1.266915,0.28034l0,2.028342c0,2.011847 -0.215138,2.473579 -0.693222,1.533619l-0.239042,-0.494717l-4.661302,0l-4.68521,0l0,0.544191c0,0.544191 0,0.56068 -1.505956,0.709094l-1.482057,0.148414l-0.07171,3.908257c-0.047811,3.759849 -0.071714,3.924752 -0.52589,3.924752c-0.430277,0 -0.478084,-0.148414 -0.525895,-2.028336l-0.07171,-2.011847l-3.991987,-0.049474l-4.015895,-0.032978l-0.023903,-2.193246c-0.023903,-1.187322 -0.095613,-2.407623 -0.191231,-2.671467c-0.143424,-0.478228 -0.215138,-0.494717 -1.577675,-0.577169l-1.434246,-0.082458l0,-0.709094c0,-0.643132 -0.047807,-0.692599 -0.645411,-0.692599c-0.621508,0 -0.645411,-0.032985 -0.717121,-1.038908l-0.071714,-1.022412l-4.183223,0l-4.183218,0l-0.191235,0.857509l-0.215134,0.873998l-1.171301,0c-1.051785,0 -1.219112,-0.049474 -1.410343,-0.412265c-0.215138,-0.39577 -0.334659,-0.412259 -2.031851,-0.412259l-1.792809,0l0,5.854141c0,5.573807 -0.023903,5.854147 -0.45418,6.002562c-0.741029,0.28034 -0.908356,-0.082452 -1.05178,-2.127277c-0.239042,-3.232154 -0.52589,-3.561961 -3.035825,-3.726871l-1.816712,-0.098941l-0.573697,0.742072c-0.478084,0.610153 -0.741029,0.775057 -1.434246,0.874004c-1.338633,0.181393 -1.984044,0.082452 -2.629455,-0.44525c-0.549794,-0.428754 -0.741029,-0.478222 -2.079658,-0.478222c-0.812739,0 -1.529864,0.049467 -1.577671,0.11543c-0.071714,0.082458 -0.191235,2.110794 -0.286853,4.534906l-0.167328,4.419469l145.599989,0l145.599989,0l0,-3.215658l0,-3.215658l-2.629455,0l-2.629451,0l0,-2.440607c0,-2.143772 -0.047807,-2.490068 -0.430273,-2.720941c-0.525895,-0.329807 -3.155346,-0.775051 -4.637403,-0.775051c-0.741024,0 -1.386435,-0.115436 -1.936233,-0.379287c-0.93226,-0.412259 -1.05178,-0.67611 -1.338629,-3.463013c-0.119521,-1.253285 -0.215138,-1.517129 -0.549794,-1.566603c-0.406374,-0.049474 -0.430277,0.148414 -0.430277,2.440601l0,2.490075l-0.884453,-0.049474l-0.908356,-0.049467l-0.07171,-1.698529c-0.023908,-0.923472 -0.167332,-1.649055 -0.262945,-1.599588c-0.119521,0.032985 -0.310756,-0.11543 -0.406374,-0.379281c-0.167328,-0.313318 -0.239037,0.131925 -0.334655,1.616077l-0.119521,2.06132l-2.557741,0.049467l-2.581644,0.049474l0,-0.758568c0,-0.626636 -0.071714,-0.742072 -0.45418,-0.742072c-0.334655,0 -0.501983,-0.131925 -0.549794,-0.461733c-0.071714,-0.44525 -0.071714,-0.44525 -1.864519,-0.428761c-0.98007,0.016496 -2.77288,0.131925 -3.991992,0.230873l-2.223082,0.214377l0,0.873998c0,0.659621 -0.095618,0.890487 -0.334655,0.890487c-0.239042,0 -0.382466,0.230866 -0.430277,0.692605l-0.07171,0.709094l-1.243016,0.049474l-1.266919,0.049467l0,2.770415c0,2.73743 0,2.786904 -0.52589,2.885844c-1.147398,0.197888 -1.625482,0.115436 -1.625482,-0.296829c0,-0.494717 -0.382466,-0.593658 -2.701165,-0.709094l-1.888427,-0.098941l0.071714,-12.301952l0.071714,-12.301952l-0.52589,-0.692605c-0.286853,-0.379281 -0.908361,-0.906976 -1.38644,-1.154338c-0.478084,-0.247355 -1.219112,-0.659621 -1.649385,-0.923472c-0.717125,-0.39577 -0.956163,-0.445243 -2.701165,-0.445243l-1.91233,0l-0.382466,1.071886c-0.215138,0.577169 -0.382466,1.253285 -0.382466,1.484151c0,0.362792 -0.095618,0.412265 -0.836642,0.412265l-0.836646,0l0,5.672748l0,5.689237l-0.52589,0.049474l-0.549794,0.049474l-0.071714,4.073167c-0.023903,2.259202 -0.143424,4.089656 -0.239042,4.089656c-0.095618,0 -0.597604,-0.115436 -1.123495,-0.247362c-0.52589,-0.131925 -1.362532,-0.230866 -1.840616,-0.247355c-0.836642,0 -0.908356,0.032978 -0.908356,0.461733l0,0.478228l-2.796783,0.115436c-1.529864,0.049467 -2.796783,0.082452 -2.84459,0.049467c-0.047807,-0.016489 0.047807,-1.747996 0.191235,-3.825805c0.239037,-3.759849 0.07171,-6.332375 -0.525895,-7.404261c-0.191231,-0.379281 -0.358558,-0.428754 -1.290822,-0.428754c-0.93226,0 -1.12349,-0.065963 -1.434246,-0.461733c-0.478084,-0.643132 -1.195205,-1.055397 -1.673288,-0.923472c-0.215138,0.049474 -0.382466,0.164904 -0.382466,0.247355c0,0.082458 -0.430273,0.148414 -0.956163,0.148414c-0.741029,0 -1.123495,-0.098941 -1.529864,-0.412259l-0.549794,-0.412265l0,0.857509c0.023903,0.511206 -0.095618,0.873998 -0.262945,0.923472c-0.191235,0.032978 -0.286853,-0.197888 -0.286853,-0.775057c0,-0.461739 -0.095613,-0.84102 -0.239042,-0.84102c-0.119517,0 -0.239037,0.131925 -0.239037,0.28034c-0.023908,0.28034 -0.047811,0.28034 -0.358563,0c-0.310756,-0.296829 -0.334659,-0.263851 -0.430277,0.247362c-0.047807,0.296829 -0.119521,0.049467 -0.119521,-0.544191c-0.047807,-0.824531 -0.167328,-1.203811 -0.52589,-1.484151l-0.454176,-0.39577l-0.023903,1.253279c0,1.286263 -0.215138,1.583092 -1.027877,1.368715c-0.645411,-0.164904 -1.553767,0.230873 -1.721099,0.742079c-0.143424,0.511206 -0.167328,0.511206 -1.673288,0.511206l-1.482053,0l-0.167332,0.857509c-0.191231,1.104864 -0.191231,4.337011 0,5.738711c0.143429,1.022412 -0.215134,3.95773 -0.52589,4.51841c-0.095613,0.16491 -0.334655,0.263851 -0.549794,0.230866c-0.454176,-0.065956 -0.645411,-2.028336 -0.717125,-6.744634l-0.023903,-2.753919l-1.362532,-0.692605c-0.764932,-0.395776 -1.936233,-1.022412 -2.605552,-1.418189c-1.075684,-0.626643 -1.362532,-0.709094 -2.868493,-0.808035c-2.414317,-0.164904 -5.856511,0.164904 -7.673223,0.742072c-1.792809,0.56068 -1.721095,0.626643 -1.98404,-1.945884c-0.167332,-1.813958 -0.334659,-2.275697 -0.669314,-1.89641c-0.334659,0.379281 -0.764932,-0.049474 -0.932264,-0.939967l-0.191231,-0.906976l-2.748976,-0.098947c-1.505956,-0.065963 -3.466097,-0.11543 -4.35055,-0.131919l-1.601574,-0.016496l-0.071714,-0.544184l-0.07171,-0.527702l-1.960141,-0.049467l-1.98404,-0.049474l-0.047807,-6.546752c-0.071714,-6.085013 -0.095618,-6.546746 -0.478084,-6.59622c-0.406369,-0.049467 -0.430277,0.379287 -0.430277,7.123921c0,7.041463 0,7.189878 -0.478079,7.189878c-0.239042,0 -1.003974,0.148414 -1.673288,0.329814c-0.693222,0.181393 -2.223086,0.412265 -3.442194,0.494717c-2.940207,0.214377 -3.011921,0.230866 -3.011921,1.005923c0,0.577169 -0.07171,0.643132 -0.5976,0.643132l-0.597604,0l0,6.414827l0,6.414821l-1.027877,0.098947c-1.529864,0.164904 -11.6174,0.131925 -12.59747,-0.016489l-0.836646,-0.148421l-0.07171,-16.935792c-0.023903,-9.333656 -0.143424,-16.91931 -0.262945,-16.869836c-0.406369,0.181393 -7.338564,0.131925 -8.318634,-0.049474c-0.645411,-0.131925 -1.219108,-0.379281 -1.553767,-0.67611c-0.764932,-0.725583 -1.147398,-0.643132 -1.147398,0.230866l0.000004,0z" id="svg_1" opacity="0.1" stroke="#ffffff"/>
 </g>
</svg>