<?xml version="1.0"?>
<svg width="24" height="24" xmlns="http://www.w3.org/2000/svg" xmlns:svg="http://www.w3.org/2000/svg">
 <g class="layer">
  <title>Layer 1</title>
  <path d="m4.652,0l1.44,0l0.988,3.702l0.916,-3.702l1.454,0l-1.665,5.505l0,3.757l-1.431,0l0,-3.757l-1.702,-5.505zm6.594,2.373c-1.119,0 -1.861,0.74 -1.861,1.835l0,3.349c0,1.204 0.629,1.831 1.861,1.831c1.022,0 1.826,-0.683 1.826,-1.831l0,-3.349c0,-1.069 -0.797,-1.835 -1.826,-1.835zm0.531,5.127c0,0.372 -0.19,0.646 -0.532,0.646c-0.351,0 -0.554,-0.287 -0.554,-0.646l0,-3.179c0,-0.374 0.172,-0.651 0.529,-0.651c0.39,0 0.557,0.269 0.557,0.651l0,3.179zm4.729,-5.07l0,5.186c-0.155,0.194 -0.5,0.512 -0.747,0.512c-0.271,0 -0.338,-0.186 -0.338,-0.46l0,-5.238l-1.27,0l0,5.71c0,0.675 0.206,1.22 0.887,1.22c0.384,0 0.918,-0.2 1.468,-0.853l0,0.754l1.27,0l0,-6.831l-1.27,0zm2.203,13.858c-0.448,0 -0.541,0.315 -0.541,0.763l0,0.659l1.069,0l0,-0.66c0.001,-0.44 -0.092,-0.762 -0.528,-0.762zm-4.703,0.04c-0.084,0.043 -0.167,0.109 -0.25,0.198l0,4.055c0.099,0.106 0.194,0.182 0.287,0.229c0.197,0.1 0.485,0.107 0.619,-0.067c0.07,-0.092 0.105,-0.241 0.105,-0.449l0,-3.359c0,-0.22 -0.043,-0.386 -0.129,-0.5c-0.147,-0.193 -0.42,-0.214 -0.632,-0.107zm4.827,-5.195c-2.604,-0.177 -11.066,-0.177 -13.666,0c-2.814,0.192 -3.146,1.892 -3.167,6.367c0.021,4.467 0.35,6.175 3.167,6.367c2.6,0.177 11.062,0.177 13.666,0c2.814,-0.192 3.146,-1.893 3.167,-6.367c-0.021,-4.467 -0.35,-6.175 -3.167,-6.367zm-12.324,10.686l-1.363,0l0,-7.54l-1.41,0l0,-1.28l4.182,0l0,1.28l-1.41,0l0,7.54l0.001,0zm4.846,0l-1.21,0l0,-0.718c-0.223,0.265 -0.455,0.467 -0.696,0.605c-0.652,0.374 -1.547,0.365 -1.547,-0.955l0,-5.438l1.209,0l0,4.988c0,0.262 0.063,0.438 0.322,0.438c0.236,0 0.564,-0.303 0.711,-0.487l0,-4.939l1.21,0l0,6.506l0.001,0zm4.657,-1.348c0,0.805 -0.301,1.431 -1.106,1.431c-0.443,0 -0.812,-0.162 -1.149,-0.583l0,0.5l-1.221,0l0,-8.82l1.221,0l0,2.84c0.273,-0.333 0.644,-0.608 1.076,-0.608c0.886,0 1.18,0.749 1.18,1.631l0,3.609l-0.001,0zm4.471,-1.752l-2.314,0l0,1.228c0,0.488 0.042,0.91 0.528,0.91c0.511,0 0.541,-0.344 0.541,-0.91l0,-0.452l1.245,0l0,0.489c0,1.253 -0.538,2.013 -1.813,2.013c-1.155,0 -1.746,-0.842 -1.746,-2.013l0,-2.921c0,-1.129 0.746,-1.914 1.837,-1.914c1.161,0 1.721,0.738 1.721,1.914l0,1.656l0.001,0z" fill="#ffffff" id="svg_1"/>
 </g>
</svg>